<?xml version="1.0" standalone="no"?><!DOCTYPE svg PUBLIC "-//W3C//DTD SVG 1.1//EN" "http://www.w3.org/Graphics/SVG/1.1/DTD/svg11.dtd"><svg class="icon" width="200px" height="200.00px" viewBox="0 0 1024 1024" version="1.1" xmlns="http://www.w3.org/2000/svg"><path d="M522.217393 0c8.017135 18.197624 39.258509 3.563171 53.129425 12.789239L572.101787 15.270733l1.145305 3.881311C568.41136 18.579392 565.229958 19.724697 564.720933 23.415124c10.944025 4.072195 20.61549 1.208933 29.777929-2.099726C604.679351 28.887137 613.078254 38.176833 613.714535 55.356407c12.916495-3.308659 27.169179-5.344757 44.603266-4.26308 8.589787-9.226068 8.271647-27.296435 6.426433-36.140735 41.485491-4.89936 87.29769-0.827165 125.474523 4.199452l-1.081677 3.944939 3.181403 2.481494c-2.036098 2.863262-5.662897 4.199452-8.462531 6.362805l-2.481494-3.181403L777.429519 29.777929c-3.372287-1.908842-8.144391-3.117775-8.526159 0 2.036098 0.063628 1.654329 2.60875 2.099726 4.26308 1.463445 0 2.863262 0 4.26308 0 2.099726-4.26308 4.58122-1.081677 4.58122-1.081677l3.944939-1.081677c1.463445 10.625885 9.862348-2.672378 10.625885-6.362805l3.181403-2.481494-1.081677-3.944939c6.044665-1.717957 5.472013 2.990519 10.625885 2.163354l-1.081677 3.881311 3.181403 2.481494c-8.017135 8.907928 16.67055 11.77119 19.152044 4.26308-5.408385-0.190884-10.116861-1.208933-12.725611-4.26308l3.245031-2.481494-1.145305-3.881311c11.45305 2.036098 24.305917 2.672378 38.304089 2.099726 0.445396-1.717957 2.163354-2.099726 2.163354-4.26308l3.181403 1.081677 3.245031-1.081677c2.799634 2.163354 6.426433 3.499543 8.462531 6.426433 12.152958 2.226982 12.407471-7.380854 21.315398-8.526159 11.262166 10.689513 38.240461 19.024788 51.0297 4.26308 1.336189 11.516678 17.370459 0.890793 29.841557 4.26308 3.181403 13.361891 20.679118 14.570824 29.714301 21.25177 3.563171 2.60875 2.672378 6.935458 6.490062 6.362805-4.962988 15.652501 1.208933 42.376284-8.589787 53.193053 16.734178 79.344184 6.999086 159.8973 6.426433 248.84932-11.134909-0.445396-21.25177 0-29.777929 2.099726-0.190884 12.280214 5.790153 18.261252 8.526159 27.678204-27.869088 11.580306-14.443568 52.111376 6.362805 61.655585-2.481494 20.233721 1.590701 33.850125 10.625885 42.567168-6.490062 10.880397-10.307745 28.378112-4.199452 40.403814-7.571738 9.353324-6.617318 27.423691-6.426433 44.666894-6.680946 2.799634-12.916495-11.45305-14.825337 0-0.699909 15.525245 25.642106 8.017135 31.941283 10.625885-1.463445 136.100408 2.799634 277.927341-2.163354 410.528206-27.487319-12.852867-77.244458-41.040095-110.585558-14.888965 5.344757 1.717957 11.389422 2.799634 19.152044 2.036098l-1.081677 3.308659 3.181403 1.018049c-2.92689 1.336189-0.254512 8.208019-4.199452 8.589787-6.55369 1.463445-4.072195-5.917409-10.625885-4.26308-19.724697 18.897532-62.991774 12.08933-85.070709 0-17.243203 6.55369-41.612747 4.008567-51.093328-8.589787-8.144391 3.245031-15.079849 7.635367-21.25177 12.852867-20.488233-2.099726-33.213844 3.626799-48.929974 6.362805-3.690427-2.163354-2.672378-12.471099-8.526159-6.362805l-2.481494-3.245031-3.944939 1.018049c-4.517592-4.962988-17.497715-0.572652-19.152044 4.26308l-3.944939-1.018049-2.481494 3.181403c-29.141649 5.535641-72.981378-3.563171-95.696594 8.462531l-3.245031-1.018049-3.181403-1.081677c-5.981037-3.245031-8.780671 0.699909-16.98869-2.226982-0.063628 3.754055 1.527073 5.599269 4.26308 6.490062l-1.145305 3.881311 3.245031 2.545122c-11.962074 8.335275-19.851953-5.726525-25.51485-10.625885-6.87183 0.127256-1.463445 12.598355-10.625885 10.625885-9.16244-13.171007-36.586131-15.843386-57.392505-10.625885-7.253598 4.835732 9.735092 8.208019 2.099726 12.661983-10.689513-2.163354-12.08933 4.835732-21.25177 4.26308-5.599269-16.35241-18.579392-25.387594-25.51485-40.467443L405.205401 981.653621l-2.099726 1.018049c0.190884-2.990519 0.31814-5.981037-2.163354-6.362805 0.31814 1.781586-0.890793 1.97247-2.163354 2.099726 0 1.399817 0 2.863262 0 4.199452l-1.081677 2.163354 1.081677 2.099726c-8.526159 2.099726-18.64302 2.60875-29.777929 2.163354-6.744574-0.31814-6.299177-7.953507-12.725611-8.526159-6.680946-0.381768-0.890793 11.898446-10.625885 8.526159-10.244117-1.908842-8.907928-15.270733-17.052319-19.152044-9.544208-1.145305-5.917409 11.007653-10.625885 14.825337-2.226982-4.89936-7.253598-6.87183-6.362805-14.825337-9.48058 0.445396-9.544208 10.244117-14.888965 14.825337-2.099726-4.326708-8.144391-4.58122-14.888965-4.199452l-3.181403-1.145305-1.018049 3.181403c-4.390336-1.145305-4.199452-6.362805-8.526159-2.036098-5.853781-0.954421-1.97247 7.889879-6.362805 8.526159-0.763537-10.562257-5.599269 1.717957-10.625885 0-1.272561-6.55369-0.572652-15.079849-8.526159-14.888965-3.881311 2.481494-1.399817 11.262166-10.625885 8.462531-4.390336-0.572652-0.509024-9.353324-6.362805-8.462531-3.054147 6.171921-9.035184 9.416952-19.215672 8.462531-3.181403 2.545122-2.481494 8.971556-8.462531 8.589787-0.31814-9.544208 0.763537-20.61549-8.462531-21.25177-11.134909-3.372287-1.399817 14.252684-10.689513 12.661983-9.544208 3.308659 1.145305-13.870916-8.462531-10.625885-8.398903-0.572652-0.636281 15.016221-6.362805 17.115947-0.890793-6.362805-10.053233-4.135824-12.725611-8.526159l1.018049-3.245031-3.181403-1.081677c0.381768-1.717957 2.163354-2.099726 2.163354-4.26308-5.281129-0.254512-10.371373-0.31814-10.689513 4.26308l-3.181403 1.081677 1.145305 3.245031c-16.925062 1.97247-28.250856-1.527073-38.304089-6.426433-2.990519 6.108293 5.790153 10.816769 0 12.725611-7.889879-9.79872-23.287868-0.254512-31.941283 2.163354 0.636281-5.662897 0.763537-10.689513-6.362805-8.526159l-3.181403-1.145305-1.145305 3.181403c-2.099726 0-1.590701-2.545122-2.099726-4.199452-11.325794-3.372287-11.007653 15.779757-16.98869 10.689513-4.008567-3.181403-0.254512-13.934544-4.26308-17.115947-8.462531-1.463445-23.606008 3.754055-25.51485-4.199452 19.024788-57.010737-7.444482-132.728121 10.625885-195.656267 7.635367-1.717957 10.307745 4.772104 14.888965 0-1.654329-40.658327 4.326708-73.617659 4.26308-112.685284-8.335275-0.127256-15.970642-1.081677-21.315398-4.26308-3.690427-36.331619-8.907928-90.224581 0-125.474523C24.646009 528.049222 22.164515 535.493705 28.718204 533.903003c0-1.399817 0-2.863262 0-4.199452l2.863262-2.60875-0.763537-3.817683c5.408385-2.29061 7.444482 9.16244 10.625885 2.099726-3.690427-11.77119-0.445396-29.141649 0-40.403814C18.474087 475.492449 14.529148 431.01644 28.718204 408.42848 20.891953 385.013356 17.456039 357.335153 13.892868 329.720577 10.393325 330.865882 2.058049 330.420486 3.266982 316.931338c5.090244-0.890793 4.58122 3.944939 10.625885 2.163354C7.720946 303.760331 15.419941 275.636731 11.729514 259.538833c-0.063628-0.31814-3.881311 0.254512-4.26308 0l-1.018049-3.181403-3.181403-1.081677c0-0.699909 0-1.399817 0-2.163354l3.181403-1.018049 1.018049-3.181403c1.908842 13.998172 9.289696 1.463445 0-2.099726l-1.018049-3.181403-3.181403 1.081677c-1.272561-6.744574 4.008567-6.617318 0-10.625885 3.817683-0.254512 4.453964 2.60875 8.462531 2.099726 2.990519-50.202535 7.317226-99.005252 6.362805-153.152727C17.201526 78.898787 9.8843 81.316653 11.729514 74.444823c1.018049-18.833904 4.772104-34.931802 6.362805-53.129425 18.133995 17.434087 55.674547 8.780671 70.245372-6.362805 1.208933 5.153872 1.781586 10.880397 8.462531 10.625885 12.407471-0.381768 24.942197-0.890793 31.877655 4.199452 3.245031-2.481494 2.545122-8.8443 8.526159-8.462531 3.626799 1.272561-0.190884 10.053233 4.199452 10.625885C146.302848 23.096984 161.573581 20.424605 162.782514 34.104637l1.018049 3.181403 1.081677 3.181403c-0.763537 0-1.399817 0-2.099726 0 0 2.099726 0 4.26308 0 6.426433 2.099726 0 4.199452 0 6.362805 0 0.190884-3.054147 0.31814-6.044665-2.163354-6.426433l1.145305-3.881311-3.181403-2.481494C176.717058 18.452136 210.121787 37.095156 224.438099 25.578478c9.989605 6.87183 30.41421 8.907928 36.140735-2.163354 17.688599 30.350582 79.662324 3.690427 110.585558 21.25177C376.12738 42.567168 373.773142 33.086588 377.590826 29.777929c7.762623 0.699909 13.807288-0.31814 19.152044-2.099726C398.842596 24.814941 400.242413 21.25177 403.105675 19.152044l2.417866 3.181403 3.944939-1.081677C416.276683 28.696252 410.295646 5.2175 417.99464 6.426433c8.017135 1.399817 22.460703 4.708476 29.777929 0-0.572652-3.435915 2.036098-3.690427 2.163354-6.362805 0.699909 0 1.336189 0 2.099726 0 0 0.699909 0 1.399817 0 2.163354C463.743211 5.281129 475.259889 8.717043 488.176384 10.625885L487.094707 14.507196l3.245031 2.481494c-7.444482 6.935458 9.79872 9.79872 12.725611 6.426433 0.063628-3.626799-1.527073-5.472013-4.199452-6.426433l1.081677-3.181403-1.081677-3.181403C505.355959 6.55369 516.1091 6.744574 520.054039 0 520.753948 0 521.517484 0 522.217393 0zM432.819977 23.415124c2.163354 0 4.26308 0 6.426433 0 0.063628-3.626799-1.654329-5.408385-4.26308-6.426433C435.110587 19.979209 433.965282 21.697167 432.819977 23.415124zM466.860986 21.315398c2.163354 0 2.545122 1.717957 4.26308 2.099726C470.996809 20.106465 471.442206 16.03427 466.860986 17.052319 466.860986 18.452136 466.860986 19.851953 466.860986 21.315398zM543.469163 25.578478c5.090244-5.153872-6.999086-5.535641-6.426433-2.163354C537.04273 23.287868 544.2327 24.751313 543.469163 25.578478zM690.259084 27.678204c1.336189 0 2.863262 0 4.199452 0 0-1.399817 0-2.863262 0-4.26308-1.336189 0-2.863262 0-4.199452 0C690.259084 24.814941 690.259084 26.278386 690.259084 27.678204zM107.426107 40.467443c0.063628-6.490062-7.444482-5.281129-12.789239-6.362805C93.427935 41.676376 100.999674 40.531071 107.426107 40.467443zM871.026386 40.467443c2.099726 0 4.26308 0 6.426433 0 0-2.163354 0-4.26308 0-6.362805-2.099726 0-4.26308 0-6.426433 0C871.026386 36.204363 871.026386 38.304089 871.026386 40.467443zM69.122019 42.567168c2.163354 0 4.26308 0 6.426433 0 0-2.099726 0-4.26308 0-6.362805-2.163354 0-4.26308 0-6.426433 0C69.122019 38.304089 69.122019 40.467443 69.122019 42.567168zM203.186329 46.830248c2.099726 0 4.199452 0 6.362805 0 0-2.163354 0-4.26308 0-6.426433-2.163354 0-4.26308 0-6.362805 0C203.186329 42.567168 203.186329 44.730522 203.186329 46.830248zM398.842596 53.193053c0.31814-2.545122 3.754055-4.835732 0-6.362805C398.524455 49.311742 395.024912 51.602352 398.842596 53.193053zM305.245728 257.375479c-6.171921-1.845214-2.354238-3.181403-2.099726-8.526159-12.725611-10.180489-30.668722-21.951679-48.993602-34.041009C228.828435 198.074133 212.030628 177.458643 175.508125 182.930656 153.938215 186.175687 140.449067 198.010505 115.952267 202.0827c17.052319 25.705734 40.21293 46.575736 61.655585 68.082018C240.281485 332.774724 300.346368 402.129303 362.701861 467.920711 368.93741 470.084065 373.136862 470.974858 375.4911 472.183791l-1.145305 3.181403 3.245031-1.081677C376.063752 486.372847 387.771314 490.572298 396.74287 499.861994 403.6147 507.115592 408.259548 517.550593 413.73156 523.277118c4.517592 4.708476 20.297349 9.544208 19.088416 21.25177 14.316312 3.817683 19.661069 19.533813 29.777929 29.841557C468.451687 580.224227 478.314036 583.532886 483.913304 589.195782 485.504006 590.722856 485.122237 596.576637 486.01303 597.721942c2.417866 2.92689 6.108293 3.245031 8.526159 6.362805 7.50811 9.925976 18.006739 19.470185 27.678204 29.841557 6.617318 3.563171 5.981037-10.625885 8.462531-4.26308 6.55369 2.863262 0.699909 5.981037 2.163354 14.888965 6.87183 5.917409 10.944025 14.570824 19.152044 19.152044-0.381768-2.481494 0.445396-3.817683 2.036098-4.199452 3.499543 7.889879 7.571738 15.079849 14.888965 19.152044-0.572652-6.235549 0.572652-7.317226 4.26308-4.26308 4.453964 8.208019-3.181403 3.499543-2.099726 12.789239 27.614576 32.832076 65.791408 64.964243 95.696594 99.959673 10.180489 11.898446 23.415124 35.886223 38.304089 44.666894 28.059972 16.543294 92.260679 11.389422 129.737603 10.625885-0.31814-4.517592 3.499543-2.481494 6.426433-6.426433 13.043751-17.561343 22.9061-54.529242 34.041009-89.333788 10.498629-33.086588 23.86052-58.474182 21.25177-89.27016-0.254512-2.672378-2.92689-10.944025-4.26308-12.789239-0.699909-1.018049-17.879483-11.134909-23.351496-14.888965-26.851039-18.452136-55.038267-36.840643-85.070709-53.129425l1.018049-3.245031-3.181403 1.145305c-0.509024-0.763537 0.699909-3.817683 0-4.199452-136.227664-95.123941-278.181853-183.312424-414.727658-278.690878-4.199452 0-8.526159 0-12.789239 0C348.703689 275.127707 333.369328 274.68231 324.397772 274.36417c10.498629-7.635367-10.180489-13.234635-17.052319-16.98869l-1.018049-3.181403L305.245728 257.375479zM775.329793 359.434878c0.763537 2.799634 3.754055 3.372287 4.199452 6.426433 10.944025-3.626799 9.735092 5.662897 21.315398 10.625885 4.835732-47.4029 22.206191-103.33196 21.25177-142.526842 0.636281 4.326708-6.171921-0.445396-6.426433-2.163354 4.26308 0.699909 6.680946-0.445396 6.426433-4.199452-19.788325-16.98869-39.003997-39.513022-68.082018-40.467443-22.142563-0.699909-50.457047 12.661983-76.480921 19.152044-20.106465 4.962988-39.640278 10.053233-57.456133 14.888965C614.159931 222.825446 604.806607 219.771299 603.025022 227.661178c57.010737 44.15787 114.148729 90.415465 170.205045 129.737603l-1.145305 3.181403L775.329793 359.434878zM228.637551 854.970165c53.829334 4.135824 110.585558-30.477838 168.105319-42.50354-2.29061-4.390336-5.408385-11.643934-8.526159-14.825337 1.081677 1.145305-1.399817 2.60875-2.099726 2.099726-15.907014-12.407471-29.841557-32.641192-46.76662-48.929974-45.748571-43.966985-97.669063-93.087843-144.626567-136.164036-16.097898 38.431345-33.086588 79.980464-51.093328 123.311169-5.535641 13.489148-16.925062 30.986862-14.888965 42.567168 2.545122 13.934544 52.811285 43.267077 68.082018 57.392505 8.526159 7.953507 17.306831 13.870916 29.841557 16.98869l1.018049 3.308659L228.637551 854.970165z" fill="#d81e06" /></svg>