<?xml version="1.0" standalone="no"?><!DOCTYPE svg PUBLIC "-//W3C//DTD SVG 1.1//EN" "http://www.w3.org/Graphics/SVG/1.1/DTD/svg11.dtd"><svg class="icon" width="200px" height="200.00px" viewBox="0 0 1024 1024" version="1.1" xmlns="http://www.w3.org/2000/svg"><path d="M512 0c-282.624 0-512 229.376-512 512s229.376 512 512 512 512-229.376 512-512-229.376-512-512-512z m5.12 192c87.552 0 158.72 70.144 158.72 156.16 0 86.528-71.168 156.16-158.72 156.16s-158.72-70.144-158.72-156.16c0-86.528 71.168-156.16 158.72-156.16z m-59.392 364.544h132.608c113.152 0 205.312 90.112 205.312 201.728v12.8c0 44.032-91.648 45.568-205.312 45.568h-132.608c-113.152 0-205.312 0-205.312-45.568v-12.8c0-111.616 92.16-201.728 205.312-201.728z"  /></svg>