<?xml version="1.0" standalone="no"?><!DOCTYPE svg PUBLIC "-//W3C//DTD SVG 1.1//EN" "http://www.w3.org/Graphics/SVG/1.1/DTD/svg11.dtd"><svg class="icon" width="200px" height="200.00px" viewBox="0 0 1024 1024" version="1.1" xmlns="http://www.w3.org/2000/svg"><path d="M964.608 342.243556l-194.878578 124.541155C821.680356 529.339733 853.333333 609.257244 853.333333 692.997689 853.333333 877.659022 700.529778 1024 512 1024c-188.507022 0-341.333333-146.340978-341.333333-331.002311 0-84.764444 32.472178-165.592178 85.560889-228.488533-65.968356-46.6944-172.714667-122.151822-173.738667-122.2656-39.822222 0-71.111111-3.527111-71.111111-43.326578V66.7648C11.377778 24.257422 60.302222 0.091022 102.4 0.091022h819.2c42.052267 0 91.022222 26.464711 91.022222 68.949334v229.876622c0 41.3696-7.486578 41.551644-48.014222 43.326578zM238.933333 68.266667H79.644444v204.8l159.288889 113.777777V68.266667z m477.866667 0H307.2v346.703644C364.293689 369.481956 435.063467 341.333333 512 341.333333c76.959289 0 147.706311 28.148622 204.8 73.636978V68.266667z m0 432.355555v-1.4336c-50.130489-57.981156-122.333867-95.800889-204.8-95.800889-82.466133 0-154.646756 37.819733-204.8 95.800889V500.622222l-0.750933-0.546133a297.3696 297.3696 0 0 0-71.793778 192.9216c0 153.645511 120.513422 268.947911 277.344711 268.947911s277.321956-115.3024 277.321956-268.947911c0-72.408178-27.010844-140.6976-71.748267-192.876089L716.8 500.622222zM944.355556 68.266667h-159.288889v318.577777l159.288889-113.777777V68.266667zM634.515911 734.640356a21.868089 21.868089 0 0 0-5.757155 18.773333l17.794844 109.317689c1.388089 8.669867 0 14.859378-6.735644 20.024889a21.162667 21.162667 0 0 1-23.096889 1.774933l-95.254756-54.044444a19.228444 19.228444 0 0 0-18.750578 0l-91.204266 54.044444a21.048889 21.048889 0 0 1-23.119645-1.752178c-6.735644-5.188267-12.151467-11.377778-10.717866-20.047644l11.559822-59.209956 5.848178-29.9008 4.391822-22.482489a21.845333 21.845333 0 0 0-5.779911-18.773333l-79.416889-65.786311a23.893333 23.893333 0 0 1-5.575111-23.665778 22.232178 22.232178 0 0 1 17.703822-15.724089l39.753955-7.350044 51.268267-9.466311 12.310756-2.275556a20.206933 20.206933 0 0 0 15.1552-11.605333l47.559111-105.699556a21.845333 21.845333 0 0 1 19.6608-12.879644c8.374044 0 15.9744 5.006222 19.683555 12.879644l45.6704 105.699556c2.958222 6.257778 8.624356 10.604089 15.200711 11.605333l105.153423 19.091911a22.141156 22.141156 0 0 1 17.681066 15.724089c2.594133 8.351289 0.432356 17.521778-5.552355 23.665778l-75.434667 68.061867z m12.356267-72.954312a14.791111 14.791111 0 0 0-11.719111-10.422044l-69.677511-12.629333a13.471289 13.471289 0 0 1-10.057956-7.691378l-30.264889-70.018845a14.472533 14.472533 0 0 0-13.038933-8.533333 14.472533 14.472533 0 0 0-13.038934 8.533333l-23.506488 52.246756-8.009956 17.772089a13.357511 13.357511 0 0 1-10.012444 7.691378l-13.494045 2.480355-54.977422 10.171734a14.768356 14.768356 0 0 0-11.741867 10.399288 15.860622 15.860622 0 0 0 3.709156 15.678578l29.673244 24.598756 22.9376 19.000889a14.427022 14.427022 0 0 1 3.822934 12.424533l-14.449778 73.9328c-0.841956 5.279289 2.116267 9.170489 6.052978 12.447289l1.046755 0.841955a13.949156 13.949156 0 0 0 15.337245 1.160534l22.505244-13.334756 37.933511-22.482489a12.788622 12.788622 0 0 1 12.401778 0l63.123911 35.817245a13.789867 13.789867 0 0 0 15.291733-1.160534c4.482844-3.436089 5.393067-7.532089 4.482845-13.289244l-11.832889-72.408178a14.586311 14.586311 0 0 1 3.845689-12.447289l49.9712-45.101511a15.860622 15.860622 0 0 0 3.6864-15.678578z" fill="#d81e06" /></svg>