<?xml version="1.0" standalone="no"?><!DOCTYPE svg PUBLIC "-//W3C//DTD SVG 1.1//EN" "http://www.w3.org/Graphics/SVG/1.1/DTD/svg11.dtd"><svg class="icon" width="200px" height="200.00px" viewBox="0 0 1024 1024" version="1.1" xmlns="http://www.w3.org/2000/svg"><path d="M668.938 876.065c-4.195-15.063-17.837-25.484-33.428-25.484h-73.662V724.81c-18.664 3.154-37.806 4.872-57.295 4.872-19.505 0-38.648-1.718-57.327-4.873v125.77H373.63c-15.591 0-29.267 10.422-33.429 25.485l-26.145 94.324c-2.874 10.487-0.76 21.735 5.797 30.39 6.59 8.687 16.797 13.79 27.648 13.79H661.92c19.159 0 34.684-15.607 34.684-34.849 0-4.79-0.942-9.364-2.676-13.51l-24.989-90.145z m188.284-747.322a113.428 113.428 0 0 0-29.052-3.782c-4.476 0-8.935 0.297-13.394 0.793V32.8C814.776 14.699 800.176 0 782.14 0H227.016c-18.052 0-32.685 14.7-32.685 32.801v92.953c-4.46-0.496-8.919-0.793-13.378-0.793-9.695 0-19.44 1.239-29.052 3.782-76.173 20.398-116.753 116.753-90.657 215.255 22.858 86.099 89.088 145.358 156.259 145.358 3.402 0 6.805-0.346 10.223-0.677a316.464 316.464 0 0 0 7.895 15.905c0.512 0.975 1.024 1.95 1.536 2.858a320.188 320.188 0 0 0 12.965 21.933c0.512 0.793 1.024 1.602 1.57 2.395 4.789 7.267 9.777 14.385 15.045 21.256 0.15 0.182 0.298 0.363 0.463 0.529 11.066 14.352 23.288 27.631 36.401 39.787 0.265 0.215 0.463 0.479 0.678 0.66 6.49 5.98 13.229 11.628 20.1 17.012 0.347 0.264 0.66 0.48 0.974 0.727 28.524 22 60.63 38.912 95.15 49.482 0.115 0.05 0.214 0.066 0.33 0.116 8.67 2.61 17.424 4.872 26.343 6.705h0.05a283.488 283.488 0 0 0 28.077 4.295c0.215 0.05 0.446 0.05 0.644 0.066 9.431 0.958 18.994 1.486 28.606 1.486 9.63 0 19.126-0.528 28.524-1.486 0.23-0.017 0.462-0.017 0.726-0.066 9.447-0.942 18.763-2.412 27.962-4.295h0.166a298.47 298.47 0 0 0 26.276-6.689c0.133-0.05 0.248-0.082 0.397-0.115 34.518-10.587 66.593-27.483 95.133-49.483 0.313-0.23 0.627-0.495 0.941-0.726 6.953-5.368 13.659-11.066 20.133-17.012a12 12 0 0 0 0.66-0.644c13.164-12.14 25.37-25.484 36.485-39.837 0.165-0.165 0.28-0.314 0.396-0.495 5.286-6.871 10.306-13.99 15.096-21.273 0.512-0.776 1.04-1.57 1.553-2.362a345.756 345.756 0 0 0 12.998-21.966c0.495-0.925 0.99-1.85 1.486-2.808a325.749 325.749 0 0 0 7.928-15.955c3.402 0.33 6.838 0.66 10.207 0.66 67.188 0 133.434-59.242 156.26-145.341 26.128-98.502-14.486-194.857-90.658-215.255z m-742.3 200.919c-17.888-67.518 5.615-134.821 51.282-147.027 4.806-1.288 9.76-1.916 14.782-1.916 4.426 0 8.885 0.595 13.361 1.52v154.756c0 9.43 0.446 18.779 1.173 28.028 0.082 1.255 0.149 2.494 0.248 3.75 0.743 8.77 1.866 17.44 3.237 26.045 0.248 1.536 0.512 3.023 0.743 4.542 1.503 8.539 3.237 16.929 5.318 25.187 0.281 1.288 0.644 2.56 0.975 3.848 0.38 1.454 0.743 2.841 1.123 4.262-39.325-6.442-77.791-48.508-92.243-102.995z m559.219-63.505l-92.16 69.45 33.511 109.866a10.492 10.492 0 0 1-3.832 11.528c-1.833 1.322-3.997 2.015-6.127 2.015-2.065 0-4.162-0.61-5.896-1.85l-95.084-65.684-95.067 65.684c-3.617 2.544-8.505 2.445-12.09-0.165a10.486 10.486 0 0 1-3.765-11.528l33.445-109.882-92.143-69.434c-3.551-2.675-5.054-7.366-3.667-11.61a10.452 10.452 0 0 1 9.711-7.234l115.729-2.33 38.037-108.576c1.437-4.179 5.384-6.97 9.81-6.97 4.427 0 8.357 2.791 9.81 6.97l38.02 108.577 115.696 2.329c4.476 0.099 8.39 3.022 9.745 7.234 1.338 4.244-0.1 8.935-3.683 11.61z m220.094 63.505c-14.468 54.487-52.885 96.553-92.26 102.995 0.397-1.404 0.76-2.808 1.124-4.262 0.347-1.288 0.693-2.527 1.007-3.848a335.463 335.463 0 0 0 5.269-25.204c0.28-1.502 0.512-2.989 0.743-4.525 1.387-8.605 2.494-17.276 3.254-26.046 0.115-1.255 0.181-2.477 0.264-3.7 0.71-9.282 1.156-18.663 1.156-28.093v-154.74c4.46-0.925 8.952-1.52 13.395-1.52 4.988 0 9.959 0.628 14.732 1.916 45.717 12.206 69.203 79.509 51.316 147.027z" fill="#13227a" /></svg>