<?xml version="1.0" standalone="no"?><!DOCTYPE svg PUBLIC "-//W3C//DTD SVG 1.1//EN" "http://www.w3.org/Graphics/SVG/1.1/DTD/svg11.dtd"><svg class="icon" width="200px" height="200.00px" viewBox="0 0 1024 1024" version="1.1" xmlns="http://www.w3.org/2000/svg"><path d="M803 803.6c0 108.8-149.2 112.5-356.3 112.5-207.1 0-412.5-3.7-412.5-112.5 0-82.7 97.1-200.9 234.6-253.8-62.6-44.4-103.4-115.6-103.4-196.2 0-134.6 113.4-243.8 253.2-243.8 139.8 0 253.1 109.2 253.1 243.8 0 80.6-40.9 151.9-103.5 196.3C711.9 603.2 803 722 803 803.6z" fill="#d4237a" /><path d="M990.5 765.7c0 78.2 2.4 91.5-132.2 93.7 12.6-14.6 19.6-32.7 19.6-55.8 0-81.6-72.3-200.4-216-253.7 62.7-44.4 84.8-115.7 84.8-196.3 0-58.7-21.6-112.6-57.5-154.7 23.7-9 11.8-14.1 38.8-14.1 115.9 0 153.7 91.4 153.7 204.1 0 67.5-15.2 127.2-67.1 164.4 119.1 44.6 175.9 144 175.9 212.4z" fill="#d4237a" /></svg>