<?xml version="1.0" standalone="no"?><!DOCTYPE svg PUBLIC "-//W3C//DTD SVG 1.1//EN" "http://www.w3.org/Graphics/SVG/1.1/DTD/svg11.dtd"><svg class="icon" width="200px" height="200.00px" viewBox="0 0 1024 1024" version="1.1" xmlns="http://www.w3.org/2000/svg"><path d="M511.1 958.6c-60.4 0-118.9-11.8-174.1-35.2-53.3-22.5-101.1-54.8-142.1-95.8-41.1-41.1-73.3-88.9-95.8-142.1-23.3-55.1-35.2-113.7-35.2-174.1s11.8-118.9 35.1-174c22.5-53.3 54.8-101.1 95.8-142.1s88.9-73.3 142.1-95.8C392 76.2 450.6 64.3 511 64.3s119 11.8 174.1 35.1c53.3 22.5 101.1 54.8 142.1 95.8 41.1 41.1 73.3 88.9 95.8 142.1 23.3 55.1 35.2 113.7 35.2 174.1S946.4 630.3 923 685.5c-22.5 53.3-54.8 101.1-95.8 142.1-41.1 41.1-88.9 73.3-142.1 95.8-55.1 23.4-113.7 35.2-174 35.2z m0-854.3c-224.5 0-407.2 182.7-407.2 407.2s182.7 407.2 407.2 407.2S918.3 736 918.3 511.5c0-224.6-182.7-407.2-407.2-407.2z"  /><path d="M254.2 771.5s0.1 0 0.2-0.1c7.3-7.3 357.4-156.2 357.4-156.2s148.9-350 156.2-357.4c7.3-7.3-357.3 156.2-357.3 156.2S250.3 771.5 254.2 771.5z m316.8-197c-35 15.1-210.9 96-217.9 99 17.4-39.3 73.3-180.5 92.7-224.1L571 574.5z m0 0"  /></svg>