<?xml version="1.0" standalone="no"?><!DOCTYPE svg PUBLIC "-//W3C//DTD SVG 1.1//EN" "http://www.w3.org/Graphics/SVG/1.1/DTD/svg11.dtd"><svg class="icon" width="200px" height="200.00px" viewBox="0 0 1024 1024" version="1.1" xmlns="http://www.w3.org/2000/svg"><path d="M1010.218667 935.552l0.128-0.341333-291.285334-284.416c57.344-67.541333 90.325333-151.466667 93.013334-236.928 5.418667-104.106667-35.370667-211.669333-109.013334-287.658667C640.170667 59.946667 551.68 15.36 460.458667 3.925333A401.322667 401.322667 0 0 0 406.528 0.298667C316.245333 0.298667 228.266667 29.610667 158.762667 82.773333 78.250667 142.72 22.656 232.704 6.229333 329.6a390.272 390.272 0 0 0 48.298667 265.813333 401.408 401.408 0 0 0 132.266667 135.68 408.149333 408.149333 0 0 0 165.973333 59.477334 412.8 412.8 0 0 0 286.421333-68.096l290.944 284.16 5.376 4.949333 0.128-0.128c9.6 7.68 21.76 11.946667 34.346667 11.946667 29.738667 0 53.930667-23.68 53.930667-52.821334 0-12.885333-4.949333-25.386667-13.696-35.029333z m-295.253334-387.925333c-47.701333 95.146667-143.488 164.693333-250.112 181.589333a354.176 354.176 0 0 1-151.552-7.552c-95.616-25.6-177.493333-93.44-219.008-181.546667-48.128-97.834667-42.112-221.056 15.274667-313.984C160.64 140.288 250.666667 80 350.293333 64.853333l7.04-1.024c3.712-0.597333 7.466667-1.152 11.093334-1.578666 12.373333-1.28 24.874667-1.877333 37.248-1.877334 50.901333 0 101.12 10.666667 145.493333 30.976 81.024 36.266667 145.621333 103.722667 177.194667 185.088a330.282667 330.282667 0 0 1-13.482667 271.189334z" fill="#ffffff" /></svg>