<?xml version="1.0" standalone="no"?><!DOCTYPE svg PUBLIC "-//W3C//DTD SVG 1.1//EN" "http://www.w3.org/Graphics/SVG/1.1/DTD/svg11.dtd"><svg class="icon" width="200px" height="184.50px" viewBox="0 0 1110 1024" version="1.1" xmlns="http://www.w3.org/2000/svg"><path d="M68.319104 0C106.101274 0 136.636783 28.663467 136.636783 63.983616L136.636783 1023.715755 0 1023.715755 0 63.983616C0 28.663467 30.608444 0 68.319104 0L68.319104 0ZM820.116736 172.27904C901.832226 172.27904 975.055377 130.672128 1025.145566 99.152299L1025.145566 694.660437C975.055377 726.254507 901.832226 767.788629 820.116736 767.788629 738.396962 767.788629 665.173811 745.043541 615.083622 713.673728 564.927642 682.23104 491.704491 659.564544 410.056226 659.564544 328.340736 659.564544 255.111868 698.46656 205.027396 729.980587L205.027396 134.398208C255.111868 102.884181 328.340736 63.983616 410.056226 63.983616 491.776 63.983616 565.000585 86.650112 615.083622 118.0928 665.173811 149.606827 738.396962 172.27904 820.116736 172.27904L820.116736 172.27904Z" fill="#1296db" /></svg>