<?xml version="1.0" standalone="no"?><!DOCTYPE svg PUBLIC "-//W3C//DTD SVG 1.1//EN" "http://www.w3.org/Graphics/SVG/1.1/DTD/svg11.dtd"><svg class="icon" width="200px" height="200.00px" viewBox="0 0 1024 1024" version="1.1" xmlns="http://www.w3.org/2000/svg"><path d="M653.173 419.664v44.66h44.659v-44.66h-44.66z m0 44.66h-22.33v44.657h22.33v-44.658z m-22.33 0v-44.66h-22.328v44.66h22.328z m0-44.66h22.33v-44.66h-22.33v44.66z m-22.33 44.66h-44.657v44.657h44.658v-44.658z m-44.656 0v-44.66h-44.66v44.66h44.66z m0-44.66h44.658v-44.66h-44.658v44.66z m-44.66 0v-44.66h-44.659v44.66h44.658z m0-44.658h44.66v-44.66h-44.66v44.66z m89.317 0h22.328v-44.66h-22.328v44.66z m44.659 0h44.659v-44.66h-44.66v44.66z m44.658 0v44.659h44.659v-44.66h-44.66z m0 89.317v44.658h44.659v-44.658h-44.66z m0 44.658h-44.66v44.66h44.66v-44.66z m-66.988 0h-22.328v22.33h22.328v-22.33z m-66.986 0h-44.66v22.33h44.66v-22.33z m-44.66 0v-44.658h-44.659v44.658h44.658z m-44.659-44.658v-44.659H429.88v44.66h44.66z m0-89.317v-44.66H429.88v44.66h44.66z m0-44.66h44.658V285.69h-44.658v44.658z m44.658-44.657h44.66v-44.66h-44.66v44.66z m44.66 0v44.658h44.659v-44.658h-44.658z m66.987 44.658h22.33v-44.658h-22.33v44.658z m66.988 0h44.659v-22.329h-44.66v22.329z m44.659 0v44.659h44.658v-44.66H742.49z m0 89.317v44.66h44.658v-44.66H742.49z m0 89.317v44.66h44.658v-44.66H742.49z m0 44.66h-44.66v22.327h44.66V553.64zM429.88 285.688h44.658v-44.66H429.88v44.66z m44.658 267.951v-44.66H429.88v44.66h44.66z m-82.394-329.357c-4.917-13.847-6.924-4.356-6.924-3.015v364.526s4.797 2.345 6.924-2.792c43.209-103.61 25.011-309.149 0-358.719zM61.446 509.538c0 246.626 199.96 446.591 446.586 446.591s446.586-199.965 446.586-446.591S754.658 62.952 508.032 62.952 61.446 262.912 61.446 509.538z m745.906 82.17s-138.326 52.585-176.738 3.015l-0.218-40.635c-56.379-7.818-204.431 44.99-235.798 61.514-6.03 3.129-9.377 7.817-9.377 7.817v172.714l-32.044 27.912-34.496-27.912V217.136c0-11.498 34.387-20.765 45.77-20.765 10.053 0 22.33 1.227 24.227 1.003 50.698-6.139 242.831 23 242.831 23 8.374 15.853 14.295 31.259 18.426 45.885 2.007 7.256 17.64 1.003 38.292 6.03 55.268 13.4 54.035-2.12 120.358-23.78l-1.233 343.2z" fill="#f4ea2a" /></svg>