<?xml version="1.0" standalone="no"?><!DOCTYPE svg PUBLIC "-//W3C//DTD SVG 1.1//EN" "http://www.w3.org/Graphics/SVG/1.1/DTD/svg11.dtd"><svg class="icon" width="200px" height="200.00px" viewBox="0 0 1024 1024" version="1.1" xmlns="http://www.w3.org/2000/svg"><path d="M823.65952 79.48288H200.34048c-27.92448 0-50.54464 22.35392-50.54464 49.92v182.99392c0 25.81504 19.85024 47.0272 45.27616 49.64352 0.99328 0.09728 2.02752 0.1536 3.04128 0.21504l155.79136 82.04288c-72.42752 49.54112-119.87456 132.16768-119.87456 225.75616 0 151.58784 124.4416 274.46784 277.97504 274.46784 153.4976 0 277.96992-122.88 277.96992-274.46784 0-93.58848-47.45216-176.21504-119.86944-225.75616l155.78112-82.05824c26.88-1.14176 48.32256-23.02464 48.32256-49.83808V129.39776c-0.01024-27.56096-22.65088-49.91488-50.54976-49.91488M335.11936 397.952L183.48032 312.39168v-199.6288h151.63392v285.18912z m418.97984 272.09728c0 132.02944-108.3904 239.0784-242.0992 239.0784-133.72416 0-242.0992-107.04896-242.0992-239.0784 0-132.0192 108.37504-239.06816 242.0992-239.06816 133.7088 0 242.0992 107.04896 242.0992 239.06816M672.04096 407.4496l-32.79872 18.49856c-38.1184-19.4048-81.3824-30.37696-127.23712-30.37696-45.85984 0-89.12384 10.97216-127.24736 30.37696l-24.39168-13.74208 8.43264 4.8896v-304.3328h303.23712V407.4496z m168.45824-95.05792l-134.7584 76.04736V112.76288h134.7584v199.6288z m-417.11104 389.26848" fill="#1afa29" /><path d="M517.04832 492.85632l53.38112 108.15488 119.35232 17.33632-86.36928 84.19328 20.38784 118.88128-106.752-56.13056-106.76224 56.13056 20.39296-118.88128-86.36928-84.19328 119.35232-17.33632z" fill="#1afa29" /></svg>