<?xml version="1.0" standalone="no"?><!DOCTYPE svg PUBLIC "-//W3C//DTD SVG 1.1//EN" "http://www.w3.org/Graphics/SVG/1.1/DTD/svg11.dtd"><svg class="icon" width="200px" height="200.00px" viewBox="0 0 1024 1024" version="1.1" xmlns="http://www.w3.org/2000/svg"><path d="M746.851331 272.975115l5.107321-49.344848L630.381689 223.630267l14.068414-75.592652 109.819175-18.337647L644.450103 111.35925 625.06152 7.350408 605.744569 111.35925l-104.009865 17.358343-3.920286-20.99722-16.309454 87.212294-92.040253 15.397688 80.072687 13.297864L272.225543 223.62822l4.897543 49.344848-141.594879 0 3.220345 19.108197c0.141216 1.39886 22.887266 135.225821 47.453778 235.177254l2.799766 5.948479c57.8168 77.132728 131.730207 84.063581 151.888316 84.48109 27.997658 39.197744 75.730799 77.973886 153.704684 83.293031L494.595097 956.456674 350.968955 956.456674c-10.848069 0-19.530822 8.751315-19.530822 19.460214 0 10.848069 8.682753 19.530822 19.530822 19.530822l326.305741 0c10.781554 0 19.461237-8.682753 19.461237-19.530822 0-10.708899-8.680706-19.460214-19.461237-19.460214L533.651624 956.456674 533.651624 700.703803c77.409021-6.300496 123.748419-44.793182 150.554948-83.012645 21.488407-0.559748 94.001931-8.541537 150.97348-84.483136l2.797719-5.947456c24.430412-99.952456 47.178509-233.780441 47.457872-235.178277l3.219321-19.108197L746.851331 272.974092zM514.052241 194.932668l-11.968589-64.113203 103.661941 17.21815 13.998829 75.592652L526.0239 223.630267l80.07064-13.297864L514.052241 194.932668zM217.281163 516.201695c-18.47784-75.940576-35.765575-170.502255-42.836621-210.401987l105.900935 0 22.608927 228.742704c0.13917 0.626263 4.40738 21.277606 17.076934 47.732118C294.134529 577.096601 252.557598 561.839105 217.281163 516.201695M512.092609 669.065222c-148.176784 0-175.824471-134.805242-176.661535-139.075499l-26.877137-273.462209 178.760336 0 10.500145 56.412824 10.502192-56.412824 207.178573 0-28.702716 278.290167C685.815209 540.28009 660.058592 669.065222 512.092609 669.065222M806.833447 516.201695c-35.20378 45.494147-76.363202 60.823274-102.261035 66.073858 10.920724-23.796986 14.558577-41.85527 14.697747-42.834574l24.149003-233.639225 106.180298 0C842.601068 345.69944 825.243749 440.187441 806.833447 516.201695" fill="#f4ea2a" /></svg>