<?xml version="1.0" standalone="no"?><!DOCTYPE svg PUBLIC "-//W3C//DTD SVG 1.1//EN" "http://www.w3.org/Graphics/SVG/1.1/DTD/svg11.dtd"><svg class="icon" width="200px" height="200.00px" viewBox="0 0 1024 1024" version="1.1" xmlns="http://www.w3.org/2000/svg"><path d="M832 608C832 631.573333 812.906667 650.666667 789.333333 650.666667 765.76 650.666667 746.666667 631.573333 746.666667 608 746.666667 584.426667 765.76 565.333333 789.333333 565.333333 812.906667 565.333333 832 584.426667 832 608ZM725.333333 906.666667 725.333333 821.333333C843.157333 821.333333 938.666667 725.824 938.666667 608 938.666667 490.176 843.157333 394.666667 725.333333 394.666667L725.333333 330.666667 725.333333 330.666667 725.333333 394.666667 298.666667 394.666667 298.666667 309.333333 640 309.333333 640 160C640 136.426667 659.093333 117.333333 682.666667 117.333333 706.24 117.333333 725.333333 136.426667 725.333333 160L725.333333 309.333333C890.282667 309.333333 1024 443.050667 1024 608 1024 772.949333 890.282667 906.666667 725.333333 906.666667ZM85.333333 608C85.333333 725.824 180.842667 821.333333 298.666667 821.333333L298.666667 906.666667C133.717333 906.666667 0 772.949333 0 608 0 443.050667 133.717333 309.333333 298.666667 309.333333L298.666667 394.666667C180.842667 394.666667 85.333333 490.176 85.333333 608ZM192 608C192 584.426667 211.093333 565.333333 234.666667 565.333333L298.666667 565.333333 298.666667 501.333333C298.666667 477.76 317.76 458.666667 341.333333 458.666667 364.906667 458.666667 384 477.76 384 501.333333L384 565.333333 448 565.333333C471.573333 565.333333 490.666667 584.426667 490.666667 608 490.666667 631.573333 471.573333 650.666667 448 650.666667L384 650.666667 384 714.666667C384 738.24 364.906667 757.333333 341.333333 757.333333 317.76 757.333333 298.666667 738.24 298.666667 714.666667L298.666667 650.666667 234.666667 650.666667C211.093333 650.666667 192 631.573333 192 608ZM576 608C576 584.426667 595.093333 565.333333 618.666667 565.333333 642.24 565.333333 661.333333 584.426667 661.333333 608 661.333333 631.573333 642.24 650.666667 618.666667 650.666667 595.093333 650.666667 576 631.573333 576 608ZM725.333333 906.666667 298.666667 906.666667 298.666667 821.333333 725.333333 821.333333 725.333333 906.666667Z" fill="#d81e06" /></svg>