<?xml version="1.0" standalone="no"?><!DOCTYPE svg PUBLIC "-//W3C//DTD SVG 1.1//EN" "http://www.w3.org/Graphics/SVG/1.1/DTD/svg11.dtd"><svg class="icon" width="200px" height="181.40px" viewBox="0 0 1129 1024" version="1.1" xmlns="http://www.w3.org/2000/svg"><path d="M416.22758633 211.83448291h284.64827607L841.58620684 71.09310342a31.03448291 31.03448291 0 0 1 43.88275898 43.88275898l-96.82758633 96.85862051H806.82758633a248.2758624 248.2758624 0 0 1 248.27586152 248.27586152v248.2758624a248.2758624 248.2758624 0 0 1-248.27586152 248.27586241H310.2758624a248.2758624 248.2758624 0 0 1-248.2758624-248.2758624v-248.27586241a248.2758624 248.2758624 0 0 1 248.2758624-248.27586152h18.18620684l-96.88965557-96.82758633A31.03448291 31.03448291 0 0 1 275.45517266 71.09310342V71.06206924l140.77241367 140.74137862z m-114.20689659 258.17586152c0-11.04827607-2.54482734-19.2413795-7.57241367-24.64137861a25.72758633 25.72758633 0 0 0-19.73793164-8.06896582 24.82758633 24.82758633 0 0 0-19.36551709 8.16206924c-4.90344785 5.46206924-7.35517266 13.65517266-7.35517177 24.51724102v205.3241376c0 11.63793076 2.5758624 20.07931026 7.72758545 25.26206923 5.15172393 5.21379317 13.59310342 7.82068974 25.35517265 7.82068975h130.3758624c8.8758624 0 15.57931026-2.01724102 20.17241367-6.08275898a20.20344786 20.20344786 0 0 0 6.95172393-15.92068888 20.7 20.7 0 0 0-7.01379317-15.98275898c-4.65517266-4.25172393-11.35862051-6.36206924-20.11034443-6.36206924H301.98965557v-194.02758633z m209.20344786 69.26896583c0-8.84482734-2.35862051-15.76551709-7.10689658-20.73103419a23.77241367 23.77241367 0 0 0-18-7.44827607 22.90344786 22.90344786 0 0 0-17.68965469 7.44827607c-4.56206924 4.96551709-6.82758633 12.38275898-6.82758633 22.18965469v142.01379317c0 9.71379316 2.26551709 17.16206924 6.82758633 22.3758624a22.40689658 22.40689658 0 0 0 17.68965469 7.82068974 23.49310342 23.49310342 0 0 0 18-7.6344829c4.74827607-5.08965557 7.10689658-12.6 7.10689658-22.56206924V539.31034443z m-24.5482752-51.26896583c6.67241367 0 12.41379317-2.17241367 17.28620684-6.45517177 4.8413795-4.31379317 7.26206924-10.27241367 7.26206836-17.90689659 0-7.88275898-2.48275898-13.90344786-7.4482752-18a26.00689658 26.00689658 0 0 0-17.1-6.20689657 25.35517266 25.35517266 0 0 0-17.53448291 6.82758632 22.34482734 22.34482734 0 0 0-7.57241367 17.37931025c0 7.75862051 2.48275898 13.74827607 7.38620684 18a26.19310342 26.19310342 0 0 0 17.68965468 6.36206836z m101.9482752 54c-3.75517266-11.17241367-7.2-19.08620684-10.27241367-23.80344785-3.10344786-4.74827607-8.78275898-7.10689658-17.00689659-7.10689658a24.11379316 24.11379316 0 0 0-20.35862051 11.35862051 19.0241376 19.0241376 0 0 0-3.10344785 10.08620683c0 2.17241367 0.40344786 4.81034443 1.17931026 7.82068975 0.7758624 3.0413795 1.76896582 6.02068974 2.91724102 8.90689658l3.35172392 8.75172393 47.29655215 116.90689658c4.71724102 11.29655214 8.06896583 18.83793076 10.08620683 22.65517266 1.98620684 3.81724102 5.08965557 7.3241376 9.27931026 10.55172392 4.15862051 3.19655215 9.7758624 4.81034443 16.82068974 4.81034531a28.95517266 28.95517266 0 0 0 13.90344786-3.10344873 27.93103418 27.93103418 0 0 0 9.62068974-8.62758632c2.60689658-3.7241376 4.96551709-8.16206924 7.10689658-13.34482735l5.18275899-12.94137949 47.63793076-118.17931025 3.53793076-8.75172393c1.05517266-2.54482734 1.95517266-5.2758624 2.73103506-8.16206924a29.76206924 29.76206924 0 0 0 1.17931025-7.6344829 19.86206924 19.86206924 0 0 0-6.64137949-14.74137862 22.40689658 22.40689658 0 0 0-16.07586153-6.36206924c-6.67241367 0-11.63793076 1.95517266-14.89655214 5.89655215-3.28965557 3.9413795-6.61034443 10.64482734-10.0241376 20.11034443l-43.26206924 117.62068975-40.18965556-112.7172419z m291.41379316 82.21034531c12.97241367 0 23.02758633-1.86206924 30.19655215-5.58620683 7.13793076-3.66206924 10.70689658-11.79310342 10.70689658-24.23793076 0-13.46896582-3.41379317-26.68965557-10.36551709-39.66206924a80.75172393 80.75172393 0 0 0-31.15862138-31.71724189c-13.90344786-8.19310342-30.53793076-12.28965557-49.93448204-12.28965469-14.89655214 0-28.48965557 2.38965557-40.71724189 7.2a82.8 82.8 0 0 0-30.91034443 20.63793076 90 90 0 0 0-19.1172419 32.27586241c-4.34482734 12.53793076-6.51724102 26.16206924-6.51724102 40.81034443 0 31.1586205 8.84482734 55.86206924 26.53448292 74.01724189 17.68965557 18.18620683 42.48620683 27.27931026 74.3586205 27.27931025 13.96551709 0 26.28620684-1.83103417 37.0241376-5.46206923a90.62068974 90.62068974 0 0 0 26.72068974-13.71724102c7.10689658-5.5241376 12.41379317-11.29655214 15.92068976-17.28620684 3.50689658-5.98965557 5.2758624-11.23448291 5.2758624-15.73448291a14.95862051 14.95862051 0 0 0-4.74827608-11.79310341 18 18 0 0 0-12.35172392-4.18965557c-4.71724102 0-8.37931026 1.08620683-10.92413848 3.25862051-6.1758624 5.83448291-11.20344786 10.42758633-15.08275811 13.81034531-3.87931026 3.41379317-8.13103418 6.57931026-12.72413847 9.55862051a53.00689658 53.00689658 0 0 1-30.56896494 8.62758632c-8.84482734 0-16.91379316-2.17241367-24.26896583-6.51724188a46.83103417 46.83103417 0 0 1-17.62758633-19.48965469 65.91724102 65.91724102 0 0 1-6.82758632-29.79310343h97.10689658z m-97.10689658-28.21034531c1.70689658-16.72758633 6.51724102-29.3586205 14.46206924-37.89310341a39.7241376 39.7241376 0 0 1 30.44482734-12.81724102c12.97241367 0 23.43103418 4.18965557 31.3758624 12.63103418 7.94482734 8.41034443 12.50689658 21.10344785 13.74827608 38.07931025h-90z" fill="#4a90e2" /></svg>