<?xml version="1.0" standalone="no"?><!DOCTYPE svg PUBLIC "-//W3C//DTD SVG 1.1//EN" "http://www.w3.org/Graphics/SVG/1.1/DTD/svg11.dtd"><svg class="icon" width="200px" height="200.00px" viewBox="0 0 1024 1024" version="1.1" xmlns="http://www.w3.org/2000/svg"><path d="M819.1 62H204.9C126 62 62 126 62 204.9v614.3C62 898 126 962 204.9 962h614.3C898 962 962 898 962 819.1V204.9C962 126 898 62 819.1 62zM947 819.1c0 34.2-13.3 66.3-37.4 90.4-24.1 24.1-56.3 37.4-90.4 37.4H204.9c-34.2 0-66.3-13.3-90.4-37.4C90.3 885.4 77 853.3 77 819.1V204.9c0-34.2 13.3-66.3 37.4-90.4C138.6 90.3 170.7 77 204.9 77h614.3c34.2 0 66.3 13.3 90.4 37.4 24.1 24.1 37.4 56.3 37.4 90.4v614.3z" fill="#13227a" /><path d="M512 756.2c55.8-17.4 204.5-81.7 204.5-229.8v-9.6H512v239.4z" fill="#13227a" /><path d="M512 220c-88.9 63.7-255.6 63.7-255.6 63.7v244.2c0 191.2 184.1 257 255.6 276.1 71.5-19.1 255.6-84.9 255.6-276.1V283.7s-166.7 0-255.6-63.7z m224.9 306.4c0 162.8-163.6 229.8-224.9 248.9-61.3-19.1-224.9-86.2-224.9-248.9V315.7s136-4.4 224.9-57.4c88.9 53.1 224.9 57.4 224.9 57.4v210.7z" fill="#13227a" /><path d="M307.5 334.9v181.9H512V277.5c-80.9 48.2-204.5 57.4-204.5 57.4z" fill="#13227a" /></svg>