<?xml version="1.0" standalone="no"?><!DOCTYPE svg PUBLIC "-//W3C//DTD SVG 1.1//EN" "http://www.w3.org/Graphics/SVG/1.1/DTD/svg11.dtd"><svg class="icon" width="200px" height="200.00px" viewBox="0 0 1024 1024" version="1.1" xmlns="http://www.w3.org/2000/svg"><path d="M578.52 574H641.6l51.816-10.832 31.888-31.304-12.776-33.272c-1.352 0.304-157.608 29.984-157.608 29.984l-5.312 15.72 10.616 16.464 18.296 13.24z" fill="#d4237a" /><path d="M801.584 274.328c-0.2-8.136-3.984-15.104-8.304-21.488-36.704-54.192-145.304-100.232-281.384-100.232-136.552 0-245.776 46.056-281.688 100.832-4.088 6.232-7.608 13.032-7.8 20.896l-11.456 469.68 0.016 0.24-0.016 0.616c-0.456 18.84 12.984 40.704 29.88 49.064l124.296 61.664c16.896 8.36 46.144 15.808 64.992 15.808h163.744c18.848 0 48.096-7.432 64.992-15.784l124.296-61.856c16.896-8.36 30.344-30.728 29.88-49.568l-11.448-469.872z m-538.12 281.68l30.816-89.176-25.12-144.752 1.032-42.232 0.08-0.12c17.208-26.248 66.352-53.632 135.16-68.296 10.76 42.416 37.448 141.912 50.96 141.912h111.232c13.504 0 40.192-99.496 50.96-141.912 68.808 14.664 117.952 42.048 135.16 68.296l0.08 0.12 1.032 42.232-25.12 144.752 30.816 89.176 1.344 55.288c-10.952 13.464-73.112 91.312-73.112 91.312v30.064l-47.336 24.736-27.768-27.768H410.328l-27.768 27.768-47.336-24.736v-30.064s-62.152-77.848-73.112-91.312l1.352-55.288z m498.384 194.92L637.6 812.576c-8.568 4.24-24.08 8.496-35.568 10.112v-3.232s0-5.312-2.584-7.64c-4.056-3.648-28.064-19.952-32.608-19.952H457.224c-4.544 0-28.552 16.296-32.608 19.952-2.584 2.328-2.584 7.64-2.584 7.64v3.232c-11.488-1.616-27-5.872-35.568-10.112l-124.248-61.648c-0.808-0.672-2.76-3.784-3.216-5.632l2.264-93.016 46.36 49.72v39.336l78.432 37.736 27.312-29.064h197.336l27.312 29.064 78.432-37.736V702l46.36-49.72 2.264 93.016c-0.464 1.848-2.416 4.952-3.224 5.632z" fill="#d4237a" /><path d="M445.504 574l18.288-13.24 10.616-16.464-5.312-15.72s-156.248-29.68-157.608-29.984l-12.776 33.272 31.888 31.304 51.816 10.832h63.088z" fill="#d4237a" /></svg>