<?xml version="1.0" standalone="no"?><!DOCTYPE svg PUBLIC "-//W3C//DTD SVG 1.1//EN" "http://www.w3.org/Graphics/SVG/1.1/DTD/svg11.dtd"><svg class="icon" width="200px" height="200.00px" viewBox="0 0 1024 1024" version="1.1" xmlns="http://www.w3.org/2000/svg"><path d="M752.768 875.392c0 17.6384-14.3616 32-32 32L121.6 907.392c-17.6384 0-32-14.3616-32-32L89.6 148.608c0-17.6384 14.3616-32 32-32l599.1936 0c17.6384 0 32 14.3616 32 32l38.4 0c0-38.8352-31.5904-70.4-70.4-70.4L121.6 78.208C82.7648 78.208 51.2 109.7728 51.2 148.608l0 726.8096c0 38.8352 31.5904 70.4 70.4 70.4l599.1936 0c38.8096 0 70.4-31.5648 70.4-70.4l0-157.9776-38.4 0L752.7936 875.392z" fill="#1afa29" /><path d="M960.0768 226.0992c-1.1008-1.5872-2.4576-2.9696-3.968-4.1472-1.1008-0.8704-27.5712-21.1712-56.9088-35.456-8.7552-4.2496-17.6128-6.4-26.2912-6.4-25.6 0-39.6288 18.1504-41.4464 20.6592l-34.0992 49.2544c-0.0768 0.128-0.1024 0.2816-0.1792 0.384-0.0768 0.1024-0.2048 0.1536-0.256 0.2816l-234.1888 370.432c-1.1008 1.7664-1.6384 3.6608-2.1248 5.5808-0.1024 0.384-0.4352 0.6656-0.512 1.0752l-26.8032 140.0832c-1.4336 7.5264 1.7408 15.232 8.1152 19.5328 3.2256 2.176 6.9888 3.2768 10.7264 3.2768 3.6096 0 7.2192-1.024 10.3936-3.0464l118.4512-76.288c1.2288-0.7936 1.92-2.0736 2.9184-3.0976 0.8704-0.8704 1.9712-1.3568 2.688-2.432l246.272-370.7392c8.2688-12.1088 27.392-40.2432 34.432-51.7888C982.1696 258.7904 962.3808 229.376 960.0768 226.0992zM862.72 223.0272c0.0512-0.0768 8.6272-7.3216 19.6864-1.9968 20.8128 10.1376 40.7296 24.2944 47.6672 29.3888 2.56 4.5056 4.8896 10.8032 4.4288 12.7744-5.0176 8.2176-17.3312 26.5472-26.4704 40.0128l-68.1984-47.1552L862.72 223.0272zM886.6816 335.1296 665.4464 668.16l-60.4672-42.0864 213.6832-337.9968L886.6816 335.1296zM579.4304 731.008l12.8256-66.9952 43.8272 30.4896L579.4304 731.008z" fill="#1afa29" /><path d="M659.2256 273.6128c0-10.5984-8.6016-19.2-19.2-19.2L159.1808 254.4128c-10.5984 0-19.2 8.6016-19.2 19.2s8.6016 19.2 19.2 19.2l480.8704 0C650.6496 292.8128 659.2256 284.2368 659.2256 273.6128z" fill="#1afa29" /><path d="M522.24 464.2816c0-10.5984-8.6016-19.2-19.2-19.2L159.1808 445.0816c-10.5984 0-19.2 8.6016-19.2 19.2s8.6016 19.2 19.2 19.2L503.04 483.4816C513.6384 483.4816 522.24 474.88 522.24 464.2816z" fill="#1afa29" /><path d="M159.1808 636.928c-10.5984 0-19.2 8.6016-19.2 19.2s8.6016 19.2 19.2 19.2l206.848 0c10.5984 0 19.2-8.6016 19.2-19.2s-8.6016-19.2-19.2-19.2L159.1808 636.928z" fill="#1afa29" /></svg>